<?xml version="1.0" encoding="UTF-8" standalone="no"?><svg xmlns="http://www.w3.org/2000/svg" xmlns:xlink="http://www.w3.org/1999/xlink" contentScriptType="application/ecmascript" contentStyleType="text/css" height="275px" preserveAspectRatio="none" style="width:542px;height:275px;background:#FFFFFF;" version="1.1" viewBox="0 0 542 275" width="542px" zoomAndPan="magnify"><defs><filter height="300%" id="f6nb99kiye4r7" width="300%" x="-1" y="-1"><feGaussianBlur result="blurOut" stdDeviation="2.0"/><feColorMatrix in="blurOut" result="blurOut2" type="matrix" values="0 0 0 0 0 0 0 0 0 0 0 0 0 0 0 0 0 0 .4 0"/><feOffset dx="4.0" dy="4.0" in="blurOut2" result="blurOut3"/><feBlend in="SourceGraphic" in2="blurOut3" mode="normal"/></filter></defs><g><ellipse cx="272.5" cy="20" fill="#000000" filter="url(#f6nb99kiye4r7)" rx="10" ry="10" style="stroke:none;stroke-width:1.0;"/><polygon fill="#FEFECE" filter="url(#f6nb99kiye4r7)" points="32,50,95,50,107,62,95,74,32,74,20,62,32,50" style="stroke:#A80036;stroke-width:1.5;"/><text fill="#000000" font-family="sans-serif" font-size="11" lengthAdjust="spacing" textLength="21" x="67.5" y="84.2104">yes</text><text fill="#000000" font-family="sans-serif" font-size="11" lengthAdjust="spacing" textLength="63" x="32" y="65.8081">condition A</text><rect fill="#FEFECE" filter="url(#f6nb99kiye4r7)" height="33.9688" rx="12.5" ry="12.5" style="stroke:#A80036;stroke-width:1.5;" width="57" x="35" y="105.7104"/><text fill="#000000" font-family="sans-serif" font-size="12" lengthAdjust="spacing" textLength="37" x="45" y="126.8491">Text 1</text><polygon fill="#FEFECE" filter="url(#f6nb99kiye4r7)" points="139,50,202,50,214,62,202,74,139,74,127,62,139,50" style="stroke:#A80036;stroke-width:1.5;"/><text fill="#000000" font-family="sans-serif" font-size="11" lengthAdjust="spacing" textLength="21" x="174.5" y="84.2104">yes</text><text fill="#000000" font-family="sans-serif" font-size="11" lengthAdjust="spacing" textLength="63" x="139" y="65.8081">condition B</text><rect fill="#FEFECE" filter="url(#f6nb99kiye4r7)" height="33.9688" rx="12.5" ry="12.5" style="stroke:#A80036;stroke-width:1.5;" width="58" x="141.5" y="105.7104"/><text fill="#000000" font-family="sans-serif" font-size="12" lengthAdjust="spacing" textLength="38" x="151.5" y="126.8491">Text 2</text><ellipse cx="170.5" cy="185.6792" fill="#FFFFFF" filter="url(#f6nb99kiye4r7)" rx="11" ry="11" style="stroke:#000000;stroke-width:1.0;"/><ellipse cx="170.5" cy="185.6792" fill="#000000" rx="6" ry="6" style="stroke:#7F7F7F;stroke-width:1.0;"/><polygon fill="#FEFECE" filter="url(#f6nb99kiye4r7)" points="246,50,309,50,321,62,309,74,246,74,234,62,246,50" style="stroke:#A80036;stroke-width:1.5;"/><text fill="#000000" font-family="sans-serif" font-size="11" lengthAdjust="spacing" textLength="21" x="281.5" y="84.2104">yes</text><text fill="#000000" font-family="sans-serif" font-size="11" lengthAdjust="spacing" textLength="63" x="246" y="65.8081">condition C</text><rect fill="#FEFECE" filter="url(#f6nb99kiye4r7)" height="33.9688" rx="12.5" ry="12.5" style="stroke:#A80036;stroke-width:1.5;" width="58" x="248.5" y="105.7104"/><text fill="#000000" font-family="sans-serif" font-size="12" lengthAdjust="spacing" textLength="38" x="258.5" y="126.8491">Text 3</text><polygon fill="#FEFECE" filter="url(#f6nb99kiye4r7)" points="353,50,417,50,429,62,417,74,353,74,341,62,353,50" style="stroke:#A80036;stroke-width:1.5;"/><text fill="#000000" font-family="sans-serif" font-size="11" lengthAdjust="spacing" textLength="21" x="389" y="84.2104">yes</text><text fill="#000000" font-family="sans-serif" font-size="11" lengthAdjust="spacing" textLength="64" x="353" y="65.8081">condition D</text><text fill="#000000" font-family="sans-serif" font-size="11" lengthAdjust="spacing" textLength="42" x="429" y="59.4058">nothing</text><rect fill="#FEFECE" filter="url(#f6nb99kiye4r7)" height="33.9688" rx="12.5" ry="12.5" style="stroke:#A80036;stroke-width:1.5;" width="58" x="356" y="105.7104"/><text fill="#000000" font-family="sans-serif" font-size="12" lengthAdjust="spacing" textLength="38" x="366" y="126.8491">Text 4</text><rect fill="#FEFECE" filter="url(#f6nb99kiye4r7)" height="33.9688" rx="12.5" ry="12.5" style="stroke:#A80036;stroke-width:1.5;" width="76" x="449" y="130.8081"/><text fill="#000000" font-family="sans-serif" font-size="12" lengthAdjust="spacing" textLength="56" x="459" y="151.9468">Text else</text><ellipse cx="272.5" cy="247.6792" fill="#FFFFFF" filter="url(#f6nb99kiye4r7)" rx="11" ry="11" style="stroke:#000000;stroke-width:1.0;"/><ellipse cx="272.5" cy="247.6792" fill="#000000" rx="6" ry="6" style="stroke:#7F7F7F;stroke-width:1.0;"/><line style="stroke:#A80036;stroke-width:1.5;" x1="170.5" x2="170.5" y1="139.6792" y2="174.6792"/><polygon fill="#A80036" points="166.5,164.6792,170.5,174.6792,174.5,164.6792,170.5,168.6792" style="stroke:#A80036;stroke-width:1.0;"/><line style="stroke:#A80036;stroke-width:1.5;" x1="63.5" x2="63.5" y1="74" y2="105.7104"/><polygon fill="#A80036" points="59.5,95.7104,63.5,105.7104,67.5,95.7104,63.5,99.7104" style="stroke:#A80036;stroke-width:1.0;"/><line style="stroke:#A80036;stroke-width:1.5;" x1="63.5" x2="63.5" y1="139.6792" y2="216.6792"/><polygon fill="#A80036" points="59.5,206.6792,63.5,216.6792,67.5,206.6792,63.5,210.6792" style="stroke:#A80036;stroke-width:1.0;"/><line style="stroke:#A80036;stroke-width:1.5;" x1="170.5" x2="170.5" y1="74" y2="105.7104"/><polygon fill="#A80036" points="166.5,95.7104,170.5,105.7104,174.5,95.7104,170.5,99.7104" style="stroke:#A80036;stroke-width:1.0;"/><line style="stroke:#A80036;stroke-width:1.5;" x1="277.5" x2="277.5" y1="74" y2="105.7104"/><polygon fill="#A80036" points="273.5,95.7104,277.5,105.7104,281.5,95.7104,277.5,99.7104" style="stroke:#A80036;stroke-width:1.0;"/><line style="stroke:#A80036;stroke-width:1.5;" x1="277.5" x2="277.5" y1="139.6792" y2="216.6792"/><polygon fill="#A80036" points="273.5,206.6792,277.5,216.6792,281.5,206.6792,277.5,210.6792" style="stroke:#A80036;stroke-width:1.0;"/><line style="stroke:#A80036;stroke-width:1.5;" x1="385" x2="385" y1="74" y2="105.7104"/><polygon fill="#A80036" points="381,95.7104,385,105.7104,389,95.7104,385,99.7104" style="stroke:#A80036;stroke-width:1.0;"/><line style="stroke:#A80036;stroke-width:1.5;" x1="385" x2="385" y1="139.6792" y2="216.6792"/><polygon fill="#A80036" points="381,206.6792,385,216.6792,389,206.6792,385,210.6792" style="stroke:#A80036;stroke-width:1.0;"/><line style="stroke:#A80036;stroke-width:1.5;" x1="107" x2="127" y1="62" y2="62"/><polygon fill="#A80036" points="117,58,127,62,117,66,121,62" style="stroke:#A80036;stroke-width:1.0;"/><line style="stroke:#A80036;stroke-width:1.5;" x1="214" x2="234" y1="62" y2="62"/><polygon fill="#A80036" points="224,58,234,62,224,66,228,62" style="stroke:#A80036;stroke-width:1.0;"/><line style="stroke:#A80036;stroke-width:1.5;" x1="321" x2="341" y1="62" y2="62"/><polygon fill="#A80036" points="331,58,341,62,331,66,335,62" style="stroke:#A80036;stroke-width:1.0;"/><line style="stroke:#A80036;stroke-width:1.5;" x1="272.5" x2="272.5" y1="30" y2="35"/><line style="stroke:#A80036;stroke-width:1.5;" x1="272.5" x2="63.5" y1="35" y2="35"/><line style="stroke:#A80036;stroke-width:1.5;" x1="63.5" x2="63.5" y1="35" y2="50"/><polygon fill="#A80036" points="59.5,40,63.5,50,67.5,40,63.5,44" style="stroke:#A80036;stroke-width:1.0;"/><line style="stroke:#A80036;stroke-width:1.5;" x1="429" x2="487" y1="62" y2="62"/><line style="stroke:#A80036;stroke-width:1.5;" x1="487" x2="487" y1="62" y2="130.8081"/><polygon fill="#A80036" points="483,120.8081,487,130.8081,491,120.8081,487,124.8081" style="stroke:#A80036;stroke-width:1.0;"/><line style="stroke:#A80036;stroke-width:1.5;" x1="487" x2="487" y1="164.7769" y2="216.6792"/><polygon fill="#A80036" points="483,206.6792,487,216.6792,491,206.6792,487,210.6792" style="stroke:#A80036;stroke-width:1.0;"/><line style="stroke:#A80036;stroke-width:1.5;" x1="63.5" x2="487" y1="216.6792" y2="216.6792"/><line style="stroke:#A80036;stroke-width:1.5;" x1="272.5" x2="272.5" y1="216.6792" y2="236.6792"/><polygon fill="#A80036" points="268.5,226.6792,272.5,236.6792,276.5,226.6792,272.5,230.6792" style="stroke:#A80036;stroke-width:1.0;"/><!--MD5=[bb912d9427ff8b649e9ce4d57f1ca285]
@startuml
start
if (condition A) then (yes)
  :Text 1;
elseif (condition B) then (yes)
  :Text 2;
  stop
elseif (condition C) then (yes)
  :Text 3;
elseif (condition D) then (yes)
  :Text 4;
else (nothing)
  :Text else;
endif
stop
@enduml

PlantUML version 1.2021.10(Mon Aug 30 13:43:48 UTC 2021)
(GPL source distribution)
Java Runtime: Java(TM) SE Runtime Environment
JVM: Java HotSpot(TM) 64-Bit Server VM
Default Encoding: UTF-8
Language: en
Country: US
--></g></svg>